<svg id="visual" viewBox="0 0 900 600" width="900" height="600" xmlns="http://www.w3.org/2000/svg" xmlns:xlink="http://www.w3.org/1999/xlink" version="1.1"><g stroke-width="1" stroke-linejoin="bevel"><path d="M387 300L433 365L527 314Z" fill="#757678" stroke="#757678"></path><path d="M433 365L461 379L527 314Z" fill="#666668" stroke="#666668"></path><path d="M527 314L481 206L387 300Z" fill="#48484a" stroke="#48484a"></path><path d="M481 206L436 192L387 300Z" fill="#202021" stroke="#202021"></path><path d="M569 392L596 325L527 314Z" fill="#2d2d2e" stroke="#2d2d2e"></path><path d="M527 314L603 172L481 206Z" fill="#131314" stroke="#131314"></path><path d="M461 379L569 392L527 314Z" fill="#3a3a3c" stroke="#3a3a3c"></path><path d="M436 192L312 203L387 300Z" fill="#2d2d2e" stroke="#2d2d2e"></path><path d="M387 300L275 375L433 365Z" fill="#959698" stroke="#959698"></path><path d="M312 203L271 319L387 300Z" fill="#575759" stroke="#575759"></path><path d="M433 365L428 522L461 379Z" fill="#2d2d2e" stroke="#2d2d2e"></path><path d="M596 325L603 172L527 314Z" fill="#858688" stroke="#858688"></path><path d="M481 206L484 91L436 192Z" fill="#202021" stroke="#202021"></path><path d="M436 192L371 101L312 203Z" fill="#131314" stroke="#131314"></path><path d="M271 319L275 375L387 300Z" fill="#2d2d2e" stroke="#2d2d2e"></path><path d="M461 379L528 529L569 392Z" fill="#202021" stroke="#202021"></path><path d="M603 172L484 91L481 206Z" fill="#3a3a3c" stroke="#3a3a3c"></path><path d="M484 91L371 101L436 192Z" fill="#959698" stroke="#959698"></path><path d="M332 503L428 522L433 365Z" fill="#666668" stroke="#666668"></path><path d="M185 185L222 260L312 203Z" fill="#131314" stroke="#131314"></path><path d="M312 203L222 260L271 319Z" fill="#666668" stroke="#666668"></path><path d="M271 319L219 434L275 375Z" fill="#202021" stroke="#202021"></path><path d="M275 375L332 503L433 365Z" fill="#757678" stroke="#757678"></path><path d="M219 434L332 503L275 375Z" fill="#a5a7a8" stroke="#a5a7a8"></path><path d="M428 522L528 529L461 379Z" fill="#a5a7a8" stroke="#a5a7a8"></path><path d="M693 424L700 327L596 325Z" fill="#131314" stroke="#131314"></path><path d="M693 424L596 325L569 392Z" fill="#959698" stroke="#959698"></path><path d="M596 325L697 178L603 172Z" fill="#202021" stroke="#202021"></path><path d="M533 600L566 533L528 529Z" fill="#959698" stroke="#959698"></path><path d="M528 529L566 533L569 392Z" fill="#3a3a3c" stroke="#3a3a3c"></path><path d="M603 172L562 61L484 91Z" fill="#48484a" stroke="#48484a"></path><path d="M484 91L413 0L371 101Z" fill="#858688" stroke="#858688"></path><path d="M634 0L562 61L717 66Z" fill="#858688" stroke="#858688"></path><path d="M313 0L290 93L371 101Z" fill="#666668" stroke="#666668"></path><path d="M371 101L290 93L312 203Z" fill="#a5a7a8" stroke="#a5a7a8"></path><path d="M566 533L693 424L569 392Z" fill="#575759" stroke="#575759"></path><path d="M700 327L697 178L596 325Z" fill="#3a3a3c" stroke="#3a3a3c"></path><path d="M93 307L219 434L271 319Z" fill="#858688" stroke="#858688"></path><path d="M204 112L185 185L312 203Z" fill="#666668" stroke="#666668"></path><path d="M222 260L93 307L271 319Z" fill="#131314" stroke="#131314"></path><path d="M508 0L413 0L484 91Z" fill="#131314" stroke="#131314"></path><path d="M634 0L508 0L562 61Z" fill="#2d2d2e" stroke="#2d2d2e"></path><path d="M562 61L508 0L484 91Z" fill="#3a3a3c" stroke="#3a3a3c"></path><path d="M428 522L426 600L528 529Z" fill="#2d2d2e" stroke="#2d2d2e"></path><path d="M332 503L426 600L428 522Z" fill="#48484a" stroke="#48484a"></path><path d="M260 600L426 600L332 503Z" fill="#959698" stroke="#959698"></path><path d="M426 600L533 600L528 529Z" fill="#959698" stroke="#959698"></path><path d="M566 533L734 484L693 424Z" fill="#2d2d2e" stroke="#2d2d2e"></path><path d="M290 93L204 112L312 203Z" fill="#3a3a3c" stroke="#3a3a3c"></path><path d="M230 0L204 112L290 93Z" fill="#48484a" stroke="#48484a"></path><path d="M91 477L228 526L219 434Z" fill="#575759" stroke="#575759"></path><path d="M219 434L228 526L332 503Z" fill="#a5a7a8" stroke="#a5a7a8"></path><path d="M413 0L313 0L371 101Z" fill="#959698" stroke="#959698"></path><path d="M599 600L734 484L566 533Z" fill="#a5a7a8" stroke="#a5a7a8"></path><path d="M802 423L794 296L700 327Z" fill="#757678" stroke="#757678"></path><path d="M700 327L794 296L697 178Z" fill="#131314" stroke="#131314"></path><path d="M533 600L599 600L566 533Z" fill="#666668" stroke="#666668"></path><path d="M802 423L700 327L693 424Z" fill="#48484a" stroke="#48484a"></path><path d="M717 66L603 172L697 178Z" fill="#2d2d2e" stroke="#2d2d2e"></path><path d="M717 66L562 61L603 172Z" fill="#2d2d2e" stroke="#2d2d2e"></path><path d="M794 106L717 66L697 178Z" fill="#48484a" stroke="#48484a"></path><path d="M228 526L260 600L332 503Z" fill="#131314" stroke="#131314"></path><path d="M88 198L93 307L185 185Z" fill="#a5a7a8" stroke="#a5a7a8"></path><path d="M185 185L93 307L222 260Z" fill="#202021" stroke="#202021"></path><path d="M228 526L202 600L260 600Z" fill="#757678" stroke="#757678"></path><path d="M794 296L805 184L697 178Z" fill="#3a3a3c" stroke="#3a3a3c"></path><path d="M734 484L802 423L693 424Z" fill="#959698" stroke="#959698"></path><path d="M794 296L900 264L805 184Z" fill="#858688" stroke="#858688"></path><path d="M313 0L230 0L290 93Z" fill="#757678" stroke="#757678"></path><path d="M129 101L88 198L185 185Z" fill="#3a3a3c" stroke="#3a3a3c"></path><path d="M93 307L90 382L219 434Z" fill="#666668" stroke="#666668"></path><path d="M129 101L185 185L204 112Z" fill="#2d2d2e" stroke="#2d2d2e"></path><path d="M93 307L0 325L90 382Z" fill="#202021" stroke="#202021"></path><path d="M230 0L129 101L204 112Z" fill="#959698" stroke="#959698"></path><path d="M805 184L794 106L697 178Z" fill="#3a3a3c" stroke="#3a3a3c"></path><path d="M717 66L709 0L634 0Z" fill="#202021" stroke="#202021"></path><path d="M797 0L709 0L717 66Z" fill="#757678" stroke="#757678"></path><path d="M116 600L202 600L228 526Z" fill="#131314" stroke="#131314"></path><path d="M719 600L774 537L734 484Z" fill="#575759" stroke="#575759"></path><path d="M734 484L774 537L802 423Z" fill="#3a3a3c" stroke="#3a3a3c"></path><path d="M599 600L719 600L734 484Z" fill="#131314" stroke="#131314"></path><path d="M0 366L91 477L90 382Z" fill="#959698" stroke="#959698"></path><path d="M90 382L91 477L219 434Z" fill="#757678" stroke="#757678"></path><path d="M900 439L794 296L802 423Z" fill="#757678" stroke="#757678"></path><path d="M900 439L900 264L794 296Z" fill="#131314" stroke="#131314"></path><path d="M805 184L900 107L794 106Z" fill="#959698" stroke="#959698"></path><path d="M900 264L900 206L805 184Z" fill="#202021" stroke="#202021"></path><path d="M794 106L797 0L717 66Z" fill="#131314" stroke="#131314"></path><path d="M900 107L797 0L794 106Z" fill="#131314" stroke="#131314"></path><path d="M91 477L116 600L228 526Z" fill="#2d2d2e" stroke="#2d2d2e"></path><path d="M0 232L0 325L93 307Z" fill="#959698" stroke="#959698"></path><path d="M91 477L0 526L116 600Z" fill="#131314" stroke="#131314"></path><path d="M0 232L93 307L88 198Z" fill="#666668" stroke="#666668"></path><path d="M719 600L804 600L774 537Z" fill="#575759" stroke="#575759"></path><path d="M900 510L900 439L802 423Z" fill="#202021" stroke="#202021"></path><path d="M0 137L0 232L88 198Z" fill="#202021" stroke="#202021"></path><path d="M0 325L0 366L90 382Z" fill="#48484a" stroke="#48484a"></path><path d="M900 510L802 423L774 537Z" fill="#666668" stroke="#666668"></path><path d="M230 0L88 0L129 101Z" fill="#202021" stroke="#202021"></path><path d="M129 101L0 137L88 198Z" fill="#757678" stroke="#757678"></path><path d="M900 206L900 107L805 184Z" fill="#666668" stroke="#666668"></path><path d="M88 0L0 137L129 101Z" fill="#a5a7a8" stroke="#a5a7a8"></path><path d="M804 600L900 510L774 537Z" fill="#858688" stroke="#858688"></path><path d="M0 366L0 526L91 477Z" fill="#3a3a3c" stroke="#3a3a3c"></path><path d="M900 107L900 0L797 0Z" fill="#757678" stroke="#757678"></path><path d="M804 600L900 600L900 510Z" fill="#3a3a3c" stroke="#3a3a3c"></path><path d="M88 0L0 0L0 137Z" fill="#757678" stroke="#757678"></path><path d="M0 526L0 600L116 600Z" fill="#202021" stroke="#202021"></path></g></svg>