<svg id="visual" viewBox="0 0 900 600" width="900" height="600" xmlns="http://www.w3.org/2000/svg" xmlns:xlink="http://www.w3.org/1999/xlink" version="1.1"><path d="M0 456L113 428L225 474L338 456L450 482L563 458L675 440L788 473L900 426L900 601L788 601L675 601L563 601L450 601L338 601L225 601L113 601L0 601Z" fill="#474846"></path><path d="M0 479L113 474L225 480L338 472L450 471L563 455L675 462L788 482L900 478L900 601L788 601L675 601L563 601L450 601L338 601L225 601L113 601L0 601Z" fill="#3f403e"></path><path d="M0 481L113 514L225 509L338 453L450 498L563 490L675 488L788 496L900 514L900 601L788 601L675 601L563 601L450 601L338 601L225 601L113 601L0 601Z" fill="#383837"></path><path d="M0 506L113 477L225 473L338 529L450 526L563 475L675 483L788 507L900 503L900 601L788 601L675 601L563 601L450 601L338 601L225 601L113 601L0 601Z" fill="#313130"></path><path d="M0 519L113 507L225 528L338 485L450 488L563 504L675 539L788 514L900 495L900 601L788 601L675 601L563 601L450 601L338 601L225 601L113 601L0 601Z" fill="#2a2a28"></path><path d="M0 551L113 545L225 539L338 511L450 527L563 546L675 534L788 511L900 540L900 601L788 601L675 601L563 601L450 601L338 601L225 601L113 601L0 601Z" fill="#232322"></path><path d="M0 554L113 559L225 555L338 522L450 555L563 528L675 543L788 541L900 554L900 601L788 601L675 601L563 601L450 601L338 601L225 601L113 601L0 601Z" fill="#1c1c1b"></path><path d="M0 559L113 550L225 542L338 534L450 552L563 553L675 562L788 575L900 549L900 601L788 601L675 601L563 601L450 601L338 601L225 601L113 601L0 601Z" fill="#151514"></path><path d="M0 558L113 550L225 567L338 580L450 574L563 574L675 570L788 563L900 556L900 601L788 601L675 601L563 601L450 601L338 601L225 601L113 601L0 601Z" fill="#0c0c0b"></path><path d="M0 597L113 590L225 578L338 583L450 585L563 584L675 570L788 590L900 580L900 601L788 601L675 601L563 601L450 601L338 601L225 601L113 601L0 601Z" fill="#000000"></path></svg>